<svg xmlns="http://www.w3.org/2000/svg" xmlns:xlink="http://www.w3.org/1999/xlink" viewBox="0 0 24 24" id="slider-horizontal">
  <defs>
    <linearGradient id="a" x1="2" x2="22" y1="12" y2="12" gradientUnits="userSpaceOnUse">
      <stop offset="0" stop-color="#16b0e2"></stop>
      <stop offset="1" stop-color="#6e5af0"></stop>
    </linearGradient>
    <linearGradient xlink:href="#a" id="b" x1="5.33" x2="18.67" y1="4.008" y2="4.008"></linearGradient>
    <linearGradient xlink:href="#a" id="c" x1="5.33" x2="18.67" y1="19.992" y2="19.992"></linearGradient>
  </defs>
  <g>
    <path fill="url(#a)" d="M5,6H19a3,3,0,0,1,3,3v6a3,3,0,0,1-3,3H5a3,3,0,0,1-3-3V9A3,3,0,0,1,5,6Z" opacity=".4"></path>
    <path fill="url(#b)" d="M8.67,2h6.66c2.67,0,3.34.67,3.34,3.33v.34c0,.12372-.00262.233-.00824.34632C18.607,6.01373,18.55542,6,18.5,6H5.5c-.05542,0-.107.01373-.1618.0163C5.33258,5.903,5.33,5.7937,5.33,5.67V5.33C5.33,2.67,6,2,8.67,2Z"></path>
    <path fill="url(#c)" d="M18.66174,17.9837c.00562.11328.00824.2226.00824.34626v.34c0,2.66-.67,3.33-3.34,3.33H8.67C6,22,5.33,21.33,5.33,18.67v-.34c0-.12366.00262-.233.00824-.34626C5.393,17.98627,5.44458,18,5.5,18h13C18.55542,18,18.607,17.98627,18.66174,17.9837Z"></path>
  </g>
</svg>
